<svg xmlns="http://www.w3.org/2000/svg" xml:space="preserve" width="500" height="500">
    <path d="M295.075 449.113c-17.006-16.153-135.393-136.209-146.627-147.395-1.523-1.517-1.705-3.53.326-6.806 3.148-5.077 4.704-10.312 4.993-19.451.337-10.696-5.249-17.614-9.321-20.938a543.313 540.956 0 0 1-3.052-2.51c-7.815-6.483-24.854-22.693-36.792-37.604-7.191-8.983-18.234-21.83-21.924-27.232s-20.838-34.578-23.659-41.494c-.14-.345-.313-.742-.486-1.194-2.526-6.506 1.79-7.72 4.882-8.288 3.322-.61 15.575-2.62 24.473-4.567 6.013-1.313 7.515-6.539 7.381-10.805-.272-8.618-1.166-38.605-1.248-43.63-.045-2.673-1.14-6.563 2.014-9.31.177-.154.36-.296.536-.441 7.597-6.268 24.31-19.02 31.474-22.26s19.752-8.645 25.396-10.59c.27-.092 8.896-3.4 9.198-3.512 6.839-2.512 16.372-9.01 25.804-14.913 2.85-1.783 5.222-1.533 7.408.73 4.11 4.254 8.482 8.26 13.592 10.778s10.96 3.55 16.714 4.107l.869.086c6.577.667 18.945 2.276 24.963 6.615 6.599 4.758 18.449 15.344 22.357 27.446 2.668 8.264 8.548 39.081 9.114 44.954.043.418.075.832.111 1.243.676 7.213 1.736 10.373 4.422 23.826.855 4.289.652 3.97-4.803 6.402-9.24 4.12-15.383 7.941-19.126 20.424-.602 1.996-.984 4.224-1.439 6.672-2.298 12.381-6.64 33.93-6.512 48.195.218 24.638 9.139 41.707 17.799 53.812 10.201 14.266 18.233 19.883 28.87 28.746 2.75 2.291 5.48 4.552 8.393 6.78 3.168 2.426 7.437 5.331 12.714 6.133 7.49 1.134 15.378.162 23.932.162 6.755 0 8.092.736 11.07 3.077 11.64 9.16 39.978 33.27 40.486 33.779 8.615 8.625 17.155 17.81 21.05 30.465 4.124 13.4 9.334 31.768 11.72 40.413 2.387 8.647 9.144 31.944 9.552 34.797.65 4.538 0 6.269-3.474 8.214-3.472 1.943-40.412 16.508-47.753 18.802-11.07 3.458-18.45 3.889-24.963-7.998-4.378-7.99-14.841-26.338-22.347-39.147-3.658-6.242-7.147-4.698-8.584-3.104-4.776 5.294-9.984 10.914-17.256 18.587-4.469 4.712-15.195 4.644-22.247-2.056z" style="fill:none;stroke:#fff;stroke-width:20;stroke-linejoin:round;stroke-dasharray:none;stroke-opacity:1"/>
    <path d="M295.075 449.113c-17.006-16.153-135.393-136.209-146.627-147.395-1.523-1.517-1.705-3.53.326-6.806 3.148-5.077 4.704-10.312 4.993-19.451.337-10.696-5.249-17.614-9.321-20.938a543.313 540.956 0 0 1-3.052-2.51c-7.815-6.483-24.854-22.693-36.792-37.604-7.191-8.983-18.234-21.83-21.924-27.232s-20.838-34.578-23.659-41.494c-.14-.345-.313-.742-.486-1.194-2.526-6.506 1.79-7.72 4.882-8.288 3.322-.61 15.575-2.62 24.473-4.567 6.013-1.313 7.515-6.539 7.381-10.805-.272-8.618-1.166-38.605-1.248-43.63-.045-2.673-1.14-6.563 2.014-9.31.177-.154.36-.296.536-.441 7.597-6.268 24.31-19.02 31.474-22.26s19.752-8.645 25.396-10.59c.27-.092 8.896-3.4 9.198-3.512 6.839-2.512 16.372-9.01 25.804-14.913 2.85-1.783 5.222-1.533 7.408.73 4.11 4.254 8.482 8.26 13.592 10.778s10.96 3.55 16.714 4.107l.869.086c6.577.667 18.945 2.276 24.963 6.615 6.599 4.758 18.449 15.344 22.357 27.446 2.668 8.264 8.548 39.081 9.114 44.954.043.418.075.832.111 1.243.676 7.213 1.736 10.373 4.422 23.826.855 4.289.652 3.97-4.803 6.402-9.24 4.12-15.383 7.941-19.126 20.424-.602 1.996-.984 4.224-1.439 6.672-2.298 12.381-6.64 33.93-6.512 48.195.218 24.638 9.139 41.707 17.799 53.812 10.201 14.266 18.233 19.883 28.87 28.746 2.75 2.291 5.48 4.552 8.393 6.78 3.168 2.426 7.437 5.331 12.714 6.133 7.49 1.134 15.378.162 23.932.162 6.755 0 8.092.736 11.07 3.077 11.64 9.16 39.978 33.27 40.486 33.779 8.615 8.625 17.155 17.81 21.05 30.465 4.124 13.4 9.334 31.768 11.72 40.413 2.387 8.647 9.144 31.944 9.552 34.797.65 4.538 0 6.269-3.474 8.214-3.472 1.943-40.412 16.508-47.753 18.802-11.07 3.458-18.45 3.889-24.963-7.998-4.378-7.99-14.841-26.338-22.347-39.147-3.658-6.242-7.147-4.698-8.584-3.104-4.776 5.294-9.984 10.914-17.256 18.587-4.469 4.712-15.195 4.644-22.247-2.056z" style="fill:none;stroke:#000;stroke-width:5;stroke-linejoin:round;stroke-dasharray:none;stroke-opacity:1"/>
</svg>
