<svg xmlns="http://www.w3.org/2000/svg" xml:space="preserve" width="500" height="500">
    <path d="M223.41 53.146c-2.503-11.193-5.842-26.505-6.995-32.18-.954-4.688 1.18-6.08 4.565-6.333 2.946-.222 4.705 1.537 5.082 5.965.589 6.922 1.62 17.232 2.209 22.828.348 3.305 1.397 7.737 4.566 14.286 2.209 4.566 6.774 13.697 12.518 28.277 2.236 5.678 12.666 32.254 15.317 39.176 1.598 4.173 3.8 11.93 5.009 17.646.167.79.297 1.544.44 2.237.834 4.026 1.506 25.492 2.651 46.097.59 10.604 9.35 12.796 10.839 20.048 6.652 32.364 13.946 67.712 17.291 83.783 1.012 4.864-1.72 6.268-2.945 6.922-2.21 1.178-3.682 2.651-2.799 7.659.884 5.007 17.968 83.653 19.147 89.25.903 4.29 1.26 5.674 1.62 8.1.708 4.778.529 10.232-.835 15.759-1.767 7.167-2.065 8.558-4.123 17.379-2.75 11.782 5.203 8.15 3.78 19.146-.078.6-.123 1.155-.17 1.668-.384 4.133-.096 5.53 2.526 6.58 2.945 1.177 3.988 1.592 6.775 2.797 10.898 4.713 2.945 16.79-4.713 14.875-8.387-2.096-13.288-3.586-22.976-7.069-13.107-4.713-33.137-23.564-41.237-31.517-3.494-3.43-2.799-7.511-1.031-10.752 1.767-3.24 1.245-5.187-1.326-9.278-3.24-5.155-12.254-17.057-15.317-19.882-3.829-3.535-7.465-5.522-11.045-7.806-6.922-4.419-12.372-13.844-12.372-22.975 0-6.928.59-31.223.737-36.083s-1.478-8.715-6.186-8.984c-5.155-.295-10.015 3.534-14.728.294s-7.767-5.282-9.573-15.464c-3.24-18.262-5.45-39.765-5.302-51.547.125-10.015 1.753-35.541 4.86-49.78 1.768-8.1 8.395-34.021 10.015-39.028 1.12-3.462 3.83-4.566 7.364-4.272 5.302.442 10.162-2.945 12.666-11.487 2.936-10.017 9.426-34.316 10.31-40.649.911-6.539 5.01-30.8 5.154-40.207.147-9.573-.098-18.016-1.767-25.479z" style="fill:none;stroke:#fff;stroke-width:20;stroke-linejoin:round;stroke-dasharray:none;stroke-opacity:1"/>
    <path d="M223.41 53.146c-2.503-11.193-5.842-26.505-6.995-32.18-.954-4.688 1.18-6.08 4.565-6.333 2.946-.222 4.705 1.537 5.082 5.965.589 6.922 1.62 17.232 2.209 22.828.348 3.305 1.397 7.737 4.566 14.286 2.209 4.566 6.774 13.697 12.518 28.277 2.236 5.678 12.666 32.254 15.317 39.176 1.598 4.173 3.8 11.93 5.009 17.646.167.79.297 1.544.44 2.237.834 4.026 1.506 25.492 2.651 46.097.59 10.604 9.35 12.796 10.839 20.048 6.652 32.364 13.946 67.712 17.291 83.783 1.012 4.864-1.72 6.268-2.945 6.922-2.21 1.178-3.682 2.651-2.799 7.659.884 5.007 17.968 83.653 19.147 89.25.903 4.29 1.26 5.674 1.62 8.1.708 4.778.529 10.232-.835 15.759-1.767 7.167-2.065 8.558-4.123 17.379-2.75 11.782 5.203 8.15 3.78 19.146-.078.6-.123 1.155-.17 1.668-.384 4.133-.096 5.53 2.526 6.58 2.945 1.177 3.988 1.592 6.775 2.797 10.898 4.713 2.945 16.79-4.713 14.875-8.387-2.096-13.288-3.586-22.976-7.069-13.107-4.713-33.137-23.564-41.237-31.517-3.494-3.43-2.799-7.511-1.031-10.752 1.767-3.24 1.245-5.187-1.326-9.278-3.24-5.155-12.254-17.057-15.317-19.882-3.829-3.535-7.465-5.522-11.045-7.806-6.922-4.419-12.372-13.844-12.372-22.975 0-6.928.59-31.223.737-36.083s-1.478-8.715-6.186-8.984c-5.155-.295-10.015 3.534-14.728.294s-7.767-5.282-9.573-15.464c-3.24-18.262-5.45-39.765-5.302-51.547.125-10.015 1.753-35.541 4.86-49.78 1.768-8.1 8.395-34.021 10.015-39.028 1.12-3.462 3.83-4.566 7.364-4.272 5.302.442 10.162-2.945 12.666-11.487 2.936-10.017 9.426-34.316 10.31-40.649.911-6.539 5.01-30.8 5.154-40.207.147-9.573-.098-18.016-1.767-25.479z" style="fill:none;stroke:#000;stroke-width:5;stroke-linejoin:round;stroke-dasharray:none;stroke-opacity:1"/>
</svg>
